<svg xmlns="http://www.w3.org/2000/svg" xmlns:xlink="http://www.w3.org/1999/xlink" viewBox="358 228 305 50" version="1.0"><defs><g/><clipPath id="66925842c1"><rect x="0" width="301" y="0" height="53"/></clipPath></defs><g transform="matrix(1, 0, 0, 1, 362, 231)"><g clip-path="url(#66925842c1)"><g fill="#ffffff" fill-opacity="1"><g transform="translate(3.657261, 43.414998)"><g><path d="M 1.433594 -31.320312 C 0.0976562 -31.320312 -0.789062 -30.527344 -0.789062 -29.34375 C -0.789062 -28.652344 -0.742188 -28.503906 0.246094 -27.070312 C 0.9375 -26.082031 1.1875 -25.441406 1.679688 -23.21875 C 3.0625 -16.84375 4.839844 -10.621094 6.570312 -6.078125 C 8.742188 -0.199219 9.089844 0.296875 10.621094 0.296875 C 11.015625 0.296875 11.511719 0.246094 12.054688 0.199219 C 13.339844 0.0507812 14.277344 0 16.105469 0 C 17.882812 0 18.722656 0.0507812 19.808594 0.199219 C 20.351562 0.246094 20.796875 0.296875 21.144531 0.296875 C 22.28125 0.296875 23.167969 -0.890625 23.960938 -3.605469 C 25.144531 -7.359375 25.144531 -7.359375 25.539062 -7.359375 C 25.886719 -7.359375 26.082031 -7.015625 26.476562 -5.828125 C 27.566406 -2.125 27.566406 -2.125 28.011719 -1.1875 C 28.554688 -0.0976562 29.144531 0.296875 30.183594 0.296875 C 30.628906 0.296875 31.171875 0.246094 31.765625 0.199219 C 33.148438 0.0507812 33.789062 0 35.125 0 C 36.457031 0 37.148438 0.0507812 38.53125 0.199219 C 39.125 0.246094 39.667969 0.296875 40.113281 0.296875 C 41.59375 0.296875 42.136719 -0.492188 44.164062 -5.582031 C 46.039062 -10.375 48.410156 -18.574219 49.300781 -23.265625 C 49.648438 -25.195312 49.894531 -25.933594 50.289062 -26.527344 C 50.488281 -26.921875 50.683594 -27.269531 50.929688 -27.515625 C 51.523438 -28.304688 51.722656 -28.851562 51.722656 -29.492188 C 51.722656 -30.527344 50.980469 -31.320312 50.042969 -31.320312 C 49.746094 -31.320312 49.300781 -31.269531 48.757812 -31.222656 C 47.71875 -31.023438 46.683594 -30.972656 45.199219 -30.972656 C 43.375 -30.972656 41.84375 -31.074219 40.902344 -31.222656 C 40.410156 -31.269531 39.964844 -31.320312 39.71875 -31.320312 C 38.730469 -31.320312 37.988281 -30.480469 37.988281 -29.246094 C 37.988281 -28.800781 38.039062 -28.601562 38.285156 -27.910156 C 38.484375 -27.316406 38.582031 -26.875 38.582031 -26.378906 C 38.582031 -24.847656 37.59375 -19.613281 36.804688 -16.992188 C 36.308594 -15.414062 36.308594 -15.414062 35.964844 -15.414062 C 35.566406 -15.414062 35.417969 -15.710938 35.125 -17.042969 C 34.53125 -19.710938 33.691406 -25.242188 33.691406 -26.332031 C 33.691406 -26.675781 33.789062 -27.316406 33.9375 -27.714844 C 34.382812 -29.046875 34.382812 -29.046875 34.382812 -29.542969 C 34.382812 -30.527344 33.640625 -31.320312 32.703125 -31.320312 C 32.457031 -31.320312 32.0625 -31.269531 31.566406 -31.171875 C 30.578125 -31.023438 29.542969 -30.972656 28.058594 -30.972656 C 26.035156 -30.972656 24.207031 -31.074219 23.21875 -31.222656 C 22.625 -31.269531 22.132812 -31.320312 21.835938 -31.320312 C 20.945312 -31.320312 20.304688 -30.480469 20.304688 -29.246094 C 20.304688 -28.800781 20.351562 -28.453125 20.550781 -27.910156 C 20.796875 -27.121094 20.847656 -26.875 20.847656 -26.332031 C 20.847656 -24.304688 20.203125 -20.453125 19.214844 -16.550781 C 18.96875 -15.5625 18.871094 -15.363281 18.523438 -15.363281 C 18.179688 -15.363281 17.980469 -15.660156 17.785156 -16.648438 C 16.449219 -22.527344 16.054688 -24.996094 16.054688 -26.824219 C 16.054688 -27.171875 16.105469 -27.464844 16.152344 -27.761719 C 16.449219 -28.949219 16.449219 -28.949219 16.449219 -29.34375 C 16.449219 -30.578125 15.757812 -31.320312 14.574219 -31.320312 C 14.179688 -31.320312 13.585938 -31.269531 12.992188 -31.222656 C 11.511719 -31.023438 10.96875 -30.972656 9.632812 -30.972656 C 6.816406 -30.972656 3.65625 -31.074219 2.71875 -31.171875 C 2.074219 -31.269531 1.628906 -31.320312 1.433594 -31.320312 Z M 1.433594 -31.320312 "/></g></g></g><g fill="#ffffff" fill-opacity="1"><g transform="translate(54.539397, 43.414998)"><g><path d="M 34.925781 -18.328125 C 34.925781 -22.972656 34.382812 -25.886719 33.246094 -27.613281 C 31.515625 -30.183594 28.355469 -31.765625 24.847656 -31.765625 C 22.722656 -31.765625 20.648438 -31.171875 19.070312 -30.183594 C 17.488281 -29.144531 17.488281 -29.144531 17.140625 -29.144531 C 16.695312 -29.144531 16.5 -29.640625 16.5 -30.777344 L 16.5 -33.296875 C 16.5 -33.59375 16.648438 -35.273438 16.695312 -35.714844 C 16.796875 -36.359375 16.84375 -36.902344 16.84375 -37.097656 C 16.84375 -38.085938 16.054688 -38.828125 15.066406 -38.828125 C 14.722656 -38.828125 14.179688 -38.777344 13.535156 -38.679688 C 12.5 -38.582031 10.96875 -38.484375 9.632812 -38.484375 C 8.347656 -38.484375 7.210938 -38.53125 5.433594 -38.730469 C 4.59375 -38.777344 3.753906 -38.828125 3.210938 -38.828125 C 1.878906 -38.828125 1.085938 -38.085938 1.085938 -36.753906 C 1.085938 -36.011719 1.136719 -35.964844 1.925781 -34.628906 C 2.46875 -33.789062 2.570312 -33 2.570312 -30.183594 L 2.570312 -8.25 C 2.570312 -5.433594 2.46875 -4.644531 1.925781 -3.804688 C 1.136719 -2.519531 1.085938 -2.421875 1.085938 -1.730469 C 1.085938 -0.492188 1.878906 0.296875 3.0625 0.296875 C 3.507812 0.296875 4.25 0.246094 5.039062 0.199219 C 6.222656 0.0976562 8.496094 0 9.683594 0 C 11.015625 0 13.339844 0.0976562 14.425781 0.246094 C 15.117188 0.296875 15.757812 0.347656 16.054688 0.347656 C 17.242188 0.347656 18.03125 -0.492188 18.03125 -1.628906 C 18.03125 -2.371094 17.980469 -2.519531 17.140625 -3.804688 C 16.597656 -4.644531 16.5 -5.382812 16.5 -8.25 L 16.5 -12.894531 C 16.5 -17.980469 16.550781 -18.625 16.992188 -19.414062 C 17.339844 -19.957031 18.03125 -20.304688 18.871094 -20.304688 C 20.550781 -20.304688 20.996094 -19.464844 20.996094 -16.351562 L 20.996094 -4.542969 C 20.996094 -1.480469 20.996094 -1.332031 21.390625 -0.59375 C 21.6875 -0.0507812 22.328125 0.296875 23.21875 0.296875 C 23.613281 0.296875 24.207031 0.246094 24.847656 0.199219 C 26.230469 0.0507812 27.070312 0 28.109375 0 C 29.441406 0 31.765625 0.0976562 32.800781 0.246094 C 33.492188 0.296875 34.183594 0.347656 34.480469 0.347656 C 35.617188 0.347656 36.40625 -0.492188 36.40625 -1.679688 C 36.40625 -2.421875 36.40625 -2.421875 35.566406 -3.804688 C 35.074219 -4.59375 34.976562 -4.988281 34.976562 -6.519531 L 34.925781 -8.25 Z M 34.925781 -18.328125 "/></g></g></g><g fill="#ffffff" fill-opacity="1"><g transform="translate(91.737697, 43.414998)"><g><path d="M 2.570312 -8.25 C 2.570312 -5.433594 2.46875 -4.644531 1.925781 -3.804688 C 1.136719 -2.519531 1.085938 -2.421875 1.085938 -1.730469 C 1.085938 -0.492188 1.878906 0.296875 3.0625 0.296875 C 3.507812 0.296875 4.199219 0.246094 5.039062 0.199219 C 6.324219 0.0976562 8.496094 0 9.980469 0 C 11.707031 0 13.929688 0.0976562 15.066406 0.246094 C 15.757812 0.296875 16.402344 0.347656 16.746094 0.347656 C 17.882812 0.347656 18.671875 -0.492188 18.671875 -1.679688 C 18.671875 -2.371094 18.625 -2.519531 17.832031 -3.804688 C 17.289062 -4.691406 17.191406 -5.335938 17.191406 -8.25 L 17.191406 -22.722656 C 17.191406 -25.636719 17.289062 -26.28125 17.832031 -27.171875 C 18.625 -28.40625 18.671875 -28.601562 18.671875 -29.292969 C 18.671875 -30.578125 17.882812 -31.320312 16.597656 -31.320312 C 16.105469 -31.320312 15.5625 -31.269531 15.066406 -31.222656 C 11.707031 -30.726562 11.707031 -30.726562 10.175781 -30.726562 C 8.644531 -30.726562 7.902344 -30.777344 5.039062 -31.171875 C 4.296875 -31.269531 3.605469 -31.320312 3.113281 -31.320312 C 1.878906 -31.320312 1.085938 -30.527344 1.085938 -29.292969 C 1.085938 -28.601562 1.136719 -28.453125 1.925781 -27.171875 C 2.46875 -26.332031 2.570312 -25.539062 2.570312 -22.722656 Z M 9.980469 -41.25 C 4.742188 -41.25 1.925781 -39.914062 1.925781 -37.394531 C 1.925781 -34.777344 4.398438 -33.59375 9.878906 -33.59375 C 15.414062 -33.59375 17.882812 -34.777344 17.882812 -37.394531 C 17.882812 -39.867188 15.066406 -41.25 9.980469 -41.25 Z M 9.980469 -41.25 "/></g></g></g><g fill="#ffffff" fill-opacity="1"><g transform="translate(111.497747, 43.414998)"><g><path d="M 17.4375 -17.734375 C 17.4375 -19.019531 17.882812 -19.5625 18.921875 -19.5625 C 19.316406 -19.5625 19.808594 -19.511719 20.453125 -19.414062 C 20.847656 -19.316406 21.191406 -19.265625 21.441406 -19.265625 C 22.476562 -19.265625 23.121094 -20.054688 23.121094 -21.242188 C 23.121094 -21.488281 23.121094 -21.882812 23.070312 -22.328125 C 23.019531 -23.367188 22.972656 -24.453125 22.972656 -25.539062 C 22.972656 -26.183594 22.972656 -26.726562 23.019531 -27.121094 C 23.121094 -28.058594 23.167969 -28.800781 23.167969 -29.046875 C 23.167969 -30.085938 22.425781 -30.777344 21.292969 -30.777344 C 20.996094 -30.777344 20.351562 -30.726562 19.660156 -30.628906 C 19.363281 -30.578125 19.070312 -30.578125 18.773438 -30.578125 C 17.785156 -30.578125 17.4375 -31.121094 17.4375 -32.652344 L 17.4375 -36.605469 C 17.4375 -37.59375 17.4375 -37.742188 17.289062 -37.988281 C 16.992188 -38.433594 16.351562 -38.777344 15.757812 -38.777344 C 15.214844 -38.777344 14.472656 -38.382812 13.980469 -37.792969 C 10.078125 -33.394531 10.078125 -33.394531 8.050781 -32.160156 C 6.769531 -31.417969 5.089844 -30.824219 4.25 -30.824219 L 1.480469 -30.925781 C 0.640625 -30.925781 -0.0976562 -30.132812 -0.0976562 -29.246094 C -0.0976562 -28.898438 -0.0507812 -28.207031 0.0507812 -27.367188 C 0.0976562 -26.921875 0.0976562 -26.183594 0.0976562 -25.195312 C 0.0976562 -24.058594 0.0507812 -23.167969 0 -22.675781 C -0.0507812 -21.984375 -0.0976562 -21.390625 -0.0976562 -21.09375 C -0.0976562 -20.304688 0.492188 -19.5625 1.1875 -19.5625 C 1.285156 -19.5625 1.433594 -19.5625 1.628906 -19.613281 C 2.074219 -19.710938 2.222656 -19.710938 2.421875 -19.710938 C 3.113281 -19.710938 3.359375 -19.019531 3.359375 -17.289062 C 3.359375 -16.5 3.308594 -15.660156 3.261719 -14.820312 C 2.964844 -10.472656 2.964844 -10.472656 2.964844 -9.335938 C 2.964844 -5.433594 4.050781 -2.863281 6.324219 -1.1875 C 8.496094 0.347656 11.214844 1.085938 14.769531 1.085938 C 17.785156 1.085938 20.699219 0.640625 21.785156 0 C 22.824219 -0.59375 22.871094 -0.742188 23.070312 -3.558594 C 23.070312 -4.59375 23.710938 -8.300781 24.007812 -9.140625 C 24.207031 -9.78125 24.304688 -10.273438 24.304688 -10.671875 C 24.304688 -11.410156 23.515625 -12.101562 22.574219 -12.101562 C 22.179688 -12.101562 21.835938 -12.054688 20.5 -11.660156 C 20.007812 -11.511719 19.5625 -11.460938 19.214844 -11.460938 C 18.03125 -11.460938 17.4375 -12.398438 17.4375 -14.179688 Z M 17.4375 -17.734375 "/></g></g></g><g fill="#ffffff" fill-opacity="1"><g transform="translate(135.852022, 43.414998)"><g><path d="M 31.8125 -12.84375 C 33.640625 -12.84375 34.234375 -13.585938 34.234375 -15.90625 C 34.234375 -26.378906 28.503906 -32.0625 17.980469 -32.0625 C 7.113281 -32.0625 0.789062 -25.933594 0.789062 -15.414062 C 0.789062 -4.792969 7.359375 1.085938 19.316406 1.085938 C 23.265625 1.085938 27.863281 0.492188 29.886719 -0.246094 C 31.074219 -0.640625 31.121094 -0.789062 31.515625 -3.210938 C 31.566406 -3.804688 32.355469 -6.867188 32.703125 -7.855469 C 32.902344 -8.449219 33 -8.890625 33 -9.238281 C 33 -9.929688 32.308594 -10.523438 31.566406 -10.523438 C 31.121094 -10.523438 30.925781 -10.472656 28.554688 -9.980469 C 25.886719 -9.386719 24.253906 -9.1875 21.6875 -9.1875 C 19.019531 -9.1875 17.832031 -9.433594 16.796875 -10.128906 C 15.957031 -10.671875 15.414062 -11.511719 15.414062 -12.203125 C 15.414062 -12.746094 15.609375 -12.84375 16.945312 -12.84375 Z M 16.597656 -18.277344 C 15.511719 -18.277344 15.117188 -18.523438 15.117188 -19.316406 C 15.117188 -21.292969 16.5 -22.675781 18.375 -22.675781 C 20.304688 -22.675781 21.585938 -21.390625 21.585938 -19.414062 C 21.585938 -18.523438 21.144531 -18.277344 19.613281 -18.277344 Z M 16.597656 -18.277344 "/></g></g></g><g fill="#ffffff" fill-opacity="1"><g transform="translate(170.876736, 43.414998)"><g><path d="M 2.570312 -2.667969 C 2.570312 -0.296875 3.160156 0.542969 4.742188 0.542969 C 5.582031 0.542969 5.878906 0.347656 6.519531 -0.640625 C 6.964844 -1.332031 7.410156 -1.679688 7.953125 -1.679688 C 8.347656 -1.679688 8.742188 -1.582031 9.140625 -1.433594 C 13.289062 0.59375 15.3125 1.085938 19.613281 1.085938 C 30.382812 1.085938 36.703125 -5.1875 36.703125 -15.855469 C 36.703125 -21.933594 34.433594 -26.675781 30.332031 -29.34375 C 28.058594 -30.777344 24.898438 -31.765625 22.378906 -31.765625 C 20.996094 -31.765625 19.214844 -31.46875 18.230469 -31.121094 C 17.785156 -30.925781 17.390625 -30.824219 17.09375 -30.824219 C 16.648438 -30.824219 16.449219 -31.222656 16.449219 -32.0625 C 16.449219 -33.9375 16.5 -34.828125 16.550781 -35.964844 C 16.597656 -36.359375 16.597656 -36.703125 16.597656 -37 C 16.597656 -38.085938 15.957031 -38.828125 15.019531 -38.828125 C 14.769531 -38.828125 14.324219 -38.777344 13.78125 -38.679688 C 12.992188 -38.582031 11.261719 -38.484375 9.683594 -38.484375 C 8.347656 -38.484375 7.210938 -38.53125 5.433594 -38.730469 C 4.542969 -38.777344 3.753906 -38.828125 3.210938 -38.828125 C 1.878906 -38.828125 1.085938 -38.085938 1.085938 -36.753906 C 1.085938 -36.011719 1.136719 -35.964844 1.925781 -34.628906 C 2.46875 -33.789062 2.570312 -33 2.570312 -30.183594 Z M 16.5 -16.105469 C 16.5 -20.007812 16.992188 -21.042969 18.921875 -21.042969 C 20.996094 -21.042969 22.082031 -19.019531 22.082031 -15.214844 C 22.082031 -11.757812 20.996094 -9.832031 19.070312 -9.832031 C 17.390625 -9.832031 16.5 -11.164062 16.5 -13.632812 Z M 16.5 -16.105469 "/></g></g></g><g fill="#ffffff" fill-opacity="1"><g transform="translate(208.371462, 43.414998)"><g><path d="M 18.722656 -32.207031 C 14.03125 -32.207031 10.621094 -31.367188 7.609375 -29.492188 C 3.308594 -26.773438 0.789062 -21.636719 0.789062 -15.414062 C 0.789062 -9.335938 3.308594 -4.199219 7.609375 -1.480469 C 10.472656 0.347656 14.078125 1.234375 18.523438 1.234375 C 22.972656 1.234375 26.578125 0.347656 29.441406 -1.480469 C 33.742188 -4.199219 36.257812 -9.335938 36.257812 -15.460938 C 36.257812 -25.933594 29.6875 -32.207031 18.722656 -32.207031 Z M 18.574219 -21.488281 C 20.648438 -21.488281 21.636719 -19.5625 21.636719 -15.609375 C 21.636719 -11.90625 20.601562 -9.980469 18.574219 -9.980469 C 16.5 -9.980469 15.414062 -11.90625 15.414062 -15.5625 C 15.414062 -19.316406 16.550781 -21.488281 18.574219 -21.488281 Z M 18.574219 -21.488281 "/></g></g></g><g fill="#ffffff" fill-opacity="1"><g transform="translate(245.421597, 43.414998)"><g><path d="M 1.433594 -31.320312 C 0.0976562 -31.320312 -0.789062 -30.527344 -0.789062 -29.34375 C -0.789062 -28.652344 -0.742188 -28.503906 0.246094 -27.070312 C 0.9375 -26.082031 1.1875 -25.441406 1.679688 -23.21875 C 3.0625 -16.84375 4.839844 -10.621094 6.570312 -6.078125 C 8.742188 -0.199219 9.089844 0.296875 10.621094 0.296875 C 11.015625 0.296875 11.511719 0.246094 12.054688 0.199219 C 13.339844 0.0507812 14.277344 0 16.105469 0 C 17.882812 0 18.722656 0.0507812 19.808594 0.199219 C 20.351562 0.246094 20.796875 0.296875 21.144531 0.296875 C 22.28125 0.296875 23.167969 -0.890625 23.960938 -3.605469 C 25.144531 -7.359375 25.144531 -7.359375 25.539062 -7.359375 C 25.886719 -7.359375 26.082031 -7.015625 26.476562 -5.828125 C 27.566406 -2.125 27.566406 -2.125 28.011719 -1.1875 C 28.554688 -0.0976562 29.144531 0.296875 30.183594 0.296875 C 30.628906 0.296875 31.171875 0.246094 31.765625 0.199219 C 33.148438 0.0507812 33.789062 0 35.125 0 C 36.457031 0 37.148438 0.0507812 38.53125 0.199219 C 39.125 0.246094 39.667969 0.296875 40.113281 0.296875 C 41.59375 0.296875 42.136719 -0.492188 44.164062 -5.582031 C 46.039062 -10.375 48.410156 -18.574219 49.300781 -23.265625 C 49.648438 -25.195312 49.894531 -25.933594 50.289062 -26.527344 C 50.488281 -26.921875 50.683594 -27.269531 50.929688 -27.515625 C 51.523438 -28.304688 51.722656 -28.851562 51.722656 -29.492188 C 51.722656 -30.527344 50.980469 -31.320312 50.042969 -31.320312 C 49.746094 -31.320312 49.300781 -31.269531 48.757812 -31.222656 C 47.71875 -31.023438 46.683594 -30.972656 45.199219 -30.972656 C 43.375 -30.972656 41.84375 -31.074219 40.902344 -31.222656 C 40.410156 -31.269531 39.964844 -31.320312 39.71875 -31.320312 C 38.730469 -31.320312 37.988281 -30.480469 37.988281 -29.246094 C 37.988281 -28.800781 38.039062 -28.601562 38.285156 -27.910156 C 38.484375 -27.316406 38.582031 -26.875 38.582031 -26.378906 C 38.582031 -24.847656 37.59375 -19.613281 36.804688 -16.992188 C 36.308594 -15.414062 36.308594 -15.414062 35.964844 -15.414062 C 35.566406 -15.414062 35.417969 -15.710938 35.125 -17.042969 C 34.53125 -19.710938 33.691406 -25.242188 33.691406 -26.332031 C 33.691406 -26.675781 33.789062 -27.316406 33.9375 -27.714844 C 34.382812 -29.046875 34.382812 -29.046875 34.382812 -29.542969 C 34.382812 -30.527344 33.640625 -31.320312 32.703125 -31.320312 C 32.457031 -31.320312 32.0625 -31.269531 31.566406 -31.171875 C 30.578125 -31.023438 29.542969 -30.972656 28.058594 -30.972656 C 26.035156 -30.972656 24.207031 -31.074219 23.21875 -31.222656 C 22.625 -31.269531 22.132812 -31.320312 21.835938 -31.320312 C 20.945312 -31.320312 20.304688 -30.480469 20.304688 -29.246094 C 20.304688 -28.800781 20.351562 -28.453125 20.550781 -27.910156 C 20.796875 -27.121094 20.847656 -26.875 20.847656 -26.332031 C 20.847656 -24.304688 20.203125 -20.453125 19.214844 -16.550781 C 18.96875 -15.5625 18.871094 -15.363281 18.523438 -15.363281 C 18.179688 -15.363281 17.980469 -15.660156 17.785156 -16.648438 C 16.449219 -22.527344 16.054688 -24.996094 16.054688 -26.824219 C 16.054688 -27.171875 16.105469 -27.464844 16.152344 -27.761719 C 16.449219 -28.949219 16.449219 -28.949219 16.449219 -29.34375 C 16.449219 -30.578125 15.757812 -31.320312 14.574219 -31.320312 C 14.179688 -31.320312 13.585938 -31.269531 12.992188 -31.222656 C 11.511719 -31.023438 10.96875 -30.972656 9.632812 -30.972656 C 6.816406 -30.972656 3.65625 -31.074219 2.71875 -31.171875 C 2.074219 -31.269531 1.628906 -31.320312 1.433594 -31.320312 Z M 1.433594 -31.320312 "/></g></g></g></g></g></svg>